<svg xmlns="http://www.w3.org/2000/svg" viewBox="0 0 512 512">
  <defs>
    <mask id="h">
      <rect width="512" height="512" fill="white"/>
      <ellipse cx="170" cy="210" rx="52" ry="36" fill="black"/>
      <ellipse cx="342" cy="210" rx="52" ry="36" fill="black"/>
      <ellipse cx="256" cy="335" rx="46" ry="34" fill="black"/>
    </mask>
  </defs>
  <g mask="url(#h)">

    <!-- 뿔 -->
    <path d="M195,60 L165,5 L210,70" fill="#4a9e4a"/>
    <path d="M317,60 L347,5 L302,70" fill="#4a9e4a"/>
    <!-- 작은 뿔들 -->
    <polygon points="155,100 140,55 175,95" fill="#3a8e3a"/>
    <polygon points="357,100 372,55 337,95" fill="#3a8e3a"/>
    <!-- 얼굴 -->
    <ellipse cx="256" cy="285" rx="168" ry="192" fill="#5cb85c"/>
    <!-- 비늘 무늬 -->
    <ellipse cx="256" cy="200" rx="60" ry="40" fill="#4a9e4a" opacity="0.5"/>
    <ellipse cx="180" cy="260" rx="40" ry="28" fill="#4a9e4a" opacity="0.4"/>
    <ellipse cx="332" cy="260" rx="40" ry="28" fill="#4a9e4a" opacity="0.4"/>
    <!-- 콧구멍 -->
    <ellipse cx="235" cy="295" rx="12" ry="10" fill="#3a7a3a"/>
    <ellipse cx="277" cy="295" rx="12" ry="10" fill="#3a7a3a"/>
  
  </g>
</svg>