<svg xmlns="http://www.w3.org/2000/svg" viewBox="0 0 512 512">
  <defs>
    <mask id="h">
      <rect width="512" height="512" fill="white"/>
      <ellipse cx="170" cy="210" rx="52" ry="36" fill="black"/>
      <ellipse cx="342" cy="210" rx="52" ry="36" fill="black"/>
      <ellipse cx="256" cy="335" rx="46" ry="34" fill="black"/>
    </mask>
  </defs>
  <g mask="url(#h)">

    <!-- 뿔 (곡선) -->
    <path d="M175,100 Q120,40 145,10 Q175,50 185,110" fill="#c8c080"/>
    <path d="M337,100 Q392,40 367,10 Q337,50 327,110" fill="#c8c080"/>
    <!-- 귀 -->
    <ellipse cx="115" cy="195" rx="42" ry="28" fill="#ddd" transform="rotate(-25,115,195)"/>
    <ellipse cx="397" cy="195" rx="42" ry="28" fill="#ddd" transform="rotate(25,397,195)"/>
    <!-- 얼굴 -->
    <ellipse cx="256" cy="285" rx="165" ry="195" fill="#e8e8e0"/>
    <!-- 수염 -->
    <path d="M235,430 Q256,460 277,430" stroke="#ccc" stroke-width="8" fill="none"/>
    <!-- 볼 -->
    <ellipse cx="165" cy="315" rx="38" ry="28" fill="#d8d8d0"/>
    <ellipse cx="347" cy="315" rx="38" ry="28" fill="#d8d8d0"/>
  
  </g>
</svg>