<svg xmlns="http://www.w3.org/2000/svg" viewBox="0 0 512 512">
  <defs>
    <mask id="h">
      <rect width="512" height="512" fill="white"/>
      <ellipse cx="170" cy="210" rx="52" ry="36" fill="black"/>
      <ellipse cx="342" cy="210" rx="52" ry="36" fill="black"/>
      <ellipse cx="256" cy="335" rx="46" ry="34" fill="black"/>
    </mask>
  </defs>
  <g mask="url(#h)">

    <!-- 갈기 -->
    <path d="M140,80 Q120,200 130,350 Q160,300 155,200 Q170,150 185,100" fill="#5a3010"/>
    <!-- 귀 -->
    <polygon points="185,80 165,30 215,85" fill="#c8843a"/>
    <polygon points="327,80 347,30 297,85" fill="#c8843a"/>
    <polygon points="190,78 175,38 210,80" fill="#f4c8a0"/>
    <polygon points="322,78 337,38 302,80" fill="#f4c8a0"/>
    <!-- 얼굴 (긴 형태) -->
    <ellipse cx="256" cy="300" rx="145" ry="215" fill="#c8843a"/>
    <!-- 주둥이 -->
    <ellipse cx="256" cy="400" rx="80" ry="55" fill="#b07030"/>
    <ellipse cx="234" cy="400" rx="16" ry="13" fill="#7a4a18"/>
    <ellipse cx="278" cy="400" rx="16" ry="13" fill="#7a4a18"/>
  
  </g>
</svg>