<svg xmlns="http://www.w3.org/2000/svg" viewBox="0 0 512 512">
  <defs>
    <mask id="h">
      <rect width="512" height="512" fill="white"/>
      <ellipse cx="170" cy="210" rx="52" ry="36" fill="black"/>
      <ellipse cx="342" cy="210" rx="52" ry="36" fill="black"/>
      <ellipse cx="256" cy="335" rx="46" ry="34" fill="black"/>
    </mask>
  </defs>
  <g mask="url(#h)">

    <!-- 뿔 -->
    <path d="M170,80 Q130,20 100,50 Q140,70 155,120" fill="#8B6914"/>
    <path d="M342,80 Q382,20 412,50 Q372,70 357,120" fill="#8B6914"/>
    <!-- 귀 -->
    <ellipse cx="110" cy="180" rx="45" ry="30" fill="#8B4513" transform="rotate(-20,110,180)"/>
    <ellipse cx="402" cy="180" rx="45" ry="30" fill="#8B4513" transform="rotate(20,402,180)"/>
    <!-- 얼굴 -->
    <ellipse cx="256" cy="290" rx="170" ry="195" fill="#A0522D"/>
    <!-- 콧구멍 영역 -->
    <ellipse cx="256" cy="370" rx="65" ry="45" fill="#8B4513"/>
    <ellipse cx="230" cy="368" rx="14" ry="12" fill="#5a2d0c"/>
    <ellipse cx="282" cy="368" rx="14" ry="12" fill="#5a2d0c"/>
  
  </g>
</svg>